<svg width="180" height="98" viewBox="0 0 180 98" fill="none" xmlns="http://www.w3.org/2000/svg">
<g clip-path="url(#clip0_1_246)">
<path fill-rule="evenodd" clip-rule="evenodd" d="M44.3602 0.00992625L46.9194 1.85673V39.3147L66.5403 0.00992625L69.9526 1.63853L90.4265 40.7251L88.7204 0.00992625H111.327C122.844 0.00992625 133.081 20.0555 133.081 21.1679V0.00992625H177.441L179.147 1.63853L156.967 22.8104L180 44.7827H2.55924L0 42.3537V0.00992625C9.81043 -0.39724 22.1801 11.8034 22.1801 21.575L44.3602 0.00992625ZM112.607 23.6108H133.081V42.3537L112.607 23.6108Z" fill="black"/>
<path d="M44.3602 42.3541V21.1822V0.00952148C32.1106 0.00952148 22.1803 9.48869 22.1801 21.1814C22.1799 9.48869 12.2496 0.00952148 0 0.00952148V21.1822V42.3541H44.3602Z" fill="#B1CD93"/>
<path d="M66.5402 0.0098877L88.7203 42.3537H44.3601L66.5402 0.0098877Z" fill="#F8D584"/>
<path d="M133.081 0.0098877H155.261H177.441L155.261 21.1818L177.441 42.3537H155.261H133.081V0.0098877Z" fill="#F0E8D4"/>
<path d="M110.901 0.0098877C123.15 0.0098877 133.081 9.48887 133.081 21.1818H110.901L133.081 42.3537H110.901H88.7205V21.1818V0.0098877H110.901Z" fill="#7FBCE5"/>
</g>
<path d="M15.9606 52.7867L30.9376 88.3401H27.4951L22.4432 76.6793H8.58384L3.5766 88.3401H0L15.1558 52.7867H15.9606ZM15.5582 60.3543L10.0592 73.2049H21.0125L15.5582 60.3543Z" fill="black"/>
<path d="M35.4188 63.0672H38.5036V67.5887C40.9476 64.1302 43.9132 62.4009 47.4004 62.4009C49.1887 62.4009 50.7982 62.9244 52.2288 63.9715C53.6595 64.9869 54.6728 66.3354 55.2689 68.0171C55.865 69.667 56.1631 72.1102 56.1631 75.3467V88.3401H53.123V76.2986C53.123 73.3477 52.9888 71.3487 52.7206 70.3016C52.4822 69.2546 52.0947 68.3661 51.5582 67.6363C51.0515 66.9065 50.3958 66.3513 49.5911 65.9705C48.7863 65.5897 47.8028 65.3994 46.6404 65.3994C45.5078 65.3994 44.3901 65.7008 43.2873 66.3037C42.1845 66.9065 41.2457 67.7474 40.4707 68.8262C39.6958 69.905 39.1742 71.0156 38.906 72.1578C38.6377 73.3001 38.5036 75.6005 38.5036 79.0591V88.3401H35.4188V63.0672Z" fill="black"/>
<path d="M60.1578 63.0672H63.3767L71.5582 82.5335L79.4714 63.0672H82.735L68.5628 97.5735H65.3438L69.904 86.4363L60.1578 63.0672Z" fill="black"/>
<path d="M83.9928 57.4986V54.167H101.608V57.4986H94.4543V88.3401H91.1907V57.4986H83.9928Z" fill="black"/>
<path d="M104.28 56.0232C104.28 55.2934 104.519 54.6588 104.996 54.1194C105.502 53.58 106.098 53.3103 106.784 53.3103C107.499 53.3103 108.095 53.58 108.572 54.1194C109.079 54.6271 109.332 55.2617 109.332 56.0232C109.332 56.753 109.079 57.3876 108.572 57.927C108.095 58.4347 107.499 58.6885 106.784 58.6885C106.098 58.6885 105.502 58.4188 104.996 57.8794C104.519 57.34 104.28 56.7212 104.28 56.0232ZM105.264 63.0672H108.349V88.3401H105.264V63.0672Z" fill="black"/>
<path d="M114.661 63.0672H117.701V67.4459C119.817 64.0826 122.53 62.4009 125.838 62.4009C127.596 62.4009 129.161 62.9403 130.532 64.0191C131.933 65.0662 132.872 66.5575 133.349 68.493C134.332 66.5258 135.584 65.0186 137.104 63.9715C138.624 62.9244 140.368 62.4009 142.335 62.4009C144.332 62.4009 146.135 63.2259 147.745 64.8758C149.354 66.4941 150.159 69.7146 150.159 74.5376V88.3401H147.029V74.5376C147.029 72.2213 146.895 70.5237 146.627 69.4449C146.359 68.3344 145.777 67.4142 144.883 66.6844C143.989 65.9229 142.797 65.5422 141.307 65.5422C139.846 65.5422 138.475 66.0657 137.194 67.1128C135.912 68.1599 135.033 69.4925 134.556 71.1107C134.079 72.729 133.841 75.1722 133.841 78.4404V88.3401H130.845V75.3943C130.845 72.6972 130.711 70.7776 130.443 69.6353C130.175 68.4613 129.578 67.4935 128.655 66.732C127.731 65.9388 126.598 65.5422 125.257 65.5422C123.915 65.5422 122.649 65.9705 121.457 66.8272C120.294 67.6522 119.37 68.7945 118.685 70.254C118.029 71.7136 117.701 74.1727 117.701 77.6312V88.3401H114.661V63.0672Z" fill="black"/>
<path d="M176.602 80.1538L179.195 81.5816C176.632 86.6584 172.847 89.1968 167.84 89.1968C164.263 89.1968 161.312 87.8959 158.987 85.294C156.663 82.6604 155.5 79.5033 155.5 75.8226C155.5 72.142 156.663 68.9848 158.987 66.3513C161.342 63.7177 164.233 62.4009 167.661 62.4009C171.118 62.4009 174.009 63.6225 176.334 66.0657C178.689 68.5089 179.911 71.8405 180 76.0606H158.63C158.719 79.1067 159.613 81.5657 161.312 83.4378C163.041 85.2781 165.127 86.1983 167.571 86.1983C171.595 86.1983 174.605 84.1835 176.602 80.1538ZM176.602 73.2525C176.185 70.841 175.142 68.9531 173.473 67.5887C171.804 66.2243 169.881 65.5422 167.705 65.5422C163.235 65.5422 160.314 68.1123 158.943 73.2525H176.602Z" fill="black"/>
<defs>
<clipPath id="clip0_1_246">
<rect width="180" height="44.7867" fill="white"/>
</clipPath>
</defs>
</svg>
